<svg version="1.1" xmlns="http://www.w3.org/2000/svg" xmlns:xlink="http://www.w3.org/1999/xlink" width="48" height="48"><defs><linearGradient x1="11.67152" y1="11.98659" x2="57.29677" y2="55.92695" gradientUnits="userSpaceOnUse" id="color-1"><stop offset="0.09" stop-color="#000000" stop-opacity="0.69"></stop><stop offset="1" stop-color="#000000" stop-opacity="0"></stop></linearGradient><filter id="dropshadow-base"><feColorMatrix type="matrix" values="0 0 0 0 0  0 0 0 0 0  0 0 0 0 0  0 0 0 .8 0"></feColorMatrix> <feOffset dx="0" dy="1"></feOffset> <feGaussianBlur stdDeviation="1"></feGaussianBlur> <feComposite in="SourceGraphic"></feComposite></filter><filter id="dropshadow-banner" x="-10%" y="-10%" width="120%" height="130%"><feColorMatrix type="matrix" values="0 0 0 0 0  0 0 0 0 0  0 0 0 0 0  0 0 0 .4 0"></feColorMatrix> <feOffset dx="0" dy="1"></feOffset> <feGaussianBlur stdDeviation="0.5"></feGaussianBlur> <feComposite in="SourceGraphic"></feComposite></filter></defs><g fill="none" fill-rule="nonzero" stroke="none" stroke-width="none" stroke-linecap="butt" stroke-linejoin="miter" stroke-miterlimit="10" stroke-dasharray="" stroke-dashoffset="0" font-family="none" font-weight="none" font-size="none" text-anchor="none" style="mix-blend-mode: normal"><path d="M7,43c-1.10457,0 -2,-0.89543 -2,-2v-34c0,-1.10457 0.89543,-2 2,-2h34c1.10457,0 2,0.89543 2,2v34c0,1.10457 -0.89543,2 -2,2z" id="base 1 5 1" fill="#512da8" stroke-width="1"></path><path d="M17.15084,19.89052l6.84916,-6.84916l19,19v8.95864c0,1.10457 -0.89543,2 -2,2h-14.43798l-14.8905,-14.8905v-8.21899zM32.72286,15.29496l10.27714,10.27714v5.50353l-16.26034,-16.26034v-2.8287c2.30621,0.52401 4.36794,1.69311 5.9832,3.30837z" fill="url(#color-1)" stroke-width="1"></path><path d="M11.67152,19.89051v8.21899h5.47933l6.84916,6.84916v-21.9173l-6.84916,6.84916zM30.16424,24c0,-2.41775 -1.39723,-4.50674 -3.42458,-5.51357v11.03399c2.02735,-1.01368 3.42458,-3.10267 3.42458,-5.52042zM26.73966,11.98658v2.8287c3.95881,1.17805 6.84916,4.84235 6.84916,9.18472c0,4.34237 -2.89034,8.00666 -6.84916,9.18472v2.8287c5.48617,-1.24655 9.58882,-6.14369 9.58882,-12.01342c0,-5.86973 -4.10264,-10.76687 -9.58882,-12.01342z" fill="none" stroke-width="0"></path><path d="M17.15084,19.89051l6.84916,-6.84916v21.9173l-6.84916,-6.84916h-5.47933v-8.21899zM26.73966,29.52042v-11.03399c2.02735,1.00683 3.42458,3.09582 3.42458,5.51357c0,2.41775 -1.39723,4.50674 -3.42458,5.52042zM36.32848,24c0,5.86973 -4.10264,10.76687 -9.58882,12.01342v-2.8287c3.95881,-1.17805 6.84916,-4.84235 6.84916,-9.18472c0,-4.34237 -2.89034,-8.00666 -6.84916,-9.18472v-2.8287c5.48617,1.24655 9.58882,6.14369 9.58882,12.01342z" fill="#ffffff" stroke-width="0"></path><path d="M2,24c0,-12.15026 9.84974,-22 22,-22c12.15026,0 22,9.84974 22,22c0,12.15026 -9.84974,22 -22,22c-12.15026,0 -22,-9.84974 -22,-22z" id="base 1 1 1" fill="none" stroke-width="1"></path><g fill="#000000" stroke-width="1" font-family="Roboto, sans-serif" font-weight="400" font-size="14" text-anchor="start"></g><rect x="2" y="2" width="44" height="22" fill="none" stroke-width="1"></rect><path d="M2,24v-22h44v22z" fill="none" stroke-width="1"></path><path d="M2,24v-22h44v22z" fill="none" stroke-width="1"></path><path d="M2,24v-22h44v22z" fill="none" stroke-width="1"></path><path d="M5,7c0,-1.10457 0.89543,-2 2,-2h34c1.10457,0 2,0.89543 2,2v17h-38z" id="base 1 2 1" fill-opacity="0.1" fill="#000000" stroke-width="1"></path><path d="M2,24v-22h44v22z" fill="none" stroke-width="1"></path></g></svg>